#!OML:ASF F:\VICON\USERDATA\INSTALL\rory3\rory3.ASF
:FULLY-SPECIFIED
:DEGREES
102
root 0.685124 18.4697 18.2062 3.9767 2.43692 4.02745
lowerback 12.8552 -4.26235 -5.16965
upperback -0.16179 -6.45246 -0.22677
thorax -6.82162 -2.97387 3.82144
lowerneck -6.2873 2.51986 -0.750901
upperneck -5.11079 3.34473 -1.85221
head -0.512345 1.68299 -0.393536
rclavicle 1.93442e-014 4.67144e-015
rhumerus -64.4554 6.81282 -82.2136
rradius 81.8302
rwrist -1.6217
rhand -45.619 32.0749
rfingers 7.12502
rthumb -18.3792 2.92317
lclavicle 1.93442e-014 4.67144e-015
lhumerus -15.8484 -19.0038 86.9823
lradius 121.3
lwrist 29.9846
lhand -38.8535 11.7305
lfingers 7.12502
lthumb -11.8624 41.3744
rfemur -45.0656 0.259401 17.3412
rtibia 69.3872
rfoot 6.02161 -4.11599
rtoes 3.28357
lfemur 29.8611 -2.51262 -26.233
ltibia 1.59028e-014
lfoot 33.9809 5.5399
ltoes -15.9481
103
root 0.698359 18.5313 18.7775 4.35421 2.09073 4.40973
lowerback 12.5214 -4.2913 -5.44846
upperback -0.452973 -6.51579 -0.0857031
thorax -6.89314 -2.98579 4.11815
lowerneck -6.70369 2.66769 -0.55166
upperneck -4.48283 3.53599 -2.35009
head -0.240604 1.76665 -0.561848
rclavicle 1.64215e-014 -3.19049e-014
rhumerus -64.8413 7.11744 -82.0409
rradius 82.1365
rwrist -1.60596
rhand -45.5409 32.4953
rfingers 7.12502
rthumb -18.304 3.33645
lclavicle 1.64215e-014 -3.19049e-014
lhumerus -16.7245 -19.9552 87.2286
lradius 121.611
lwrist 29.2993
lhand -38.0214 10.413
lfingers 7.12502
lthumb -11.0599 40.1016
rfemur -44.8229 1.14952 16.588
rtibia 64.5253
rfoot 5.21319 -3.57729
rtoes 0.502737
lfemur 30.6754 -2.93304 -26.9072
ltibia 7.31528e-014
lfoot 36.0315 4.98157
ltoes -11.146
104
root 0.716573 18.5814 19.3579 4.51412 1.95404 4.83956
lowerback 12.5315 -4.37192 -5.54287
upperback -0.71952 -6.64743 -0.04576
thorax -7.15683 -3.02934 4.2505
lowerneck -7.0902 2.75393 -0.512046
upperneck -4.05791 3.65793 -2.60973
head -0.0409996 1.81871 -0.636103
rclavicle -1.33124e-014 -1.21259e-014
rhumerus -65.1047 7.2363 -81.9124
rradius 82.453
rwrist -1.50751
rhand -45.1517 33.3235
rfingers 7.12502
rthumb -17.9297 4.12994
lclavicle -1.33124e-014 -1.21259e-014
lhumerus -17.9234 -20.9387 87.6501
lradius 121.872
lwrist 28.0788
lhand -37.7988 9.78512
lfingers 7.12502
lthumb -10.8452 39.4851
rfemur -44.1323 1.75871 15.7485
rtibia 59.4963
rfoot 4.77549 -3.11611
rtoes -2.974
lfemur 31.9115 -3.48621 -27.7627
ltibia -3.18055e-014
lfoot 37.0537 4.65373
ltoes -8.70437
105
root 0.732547 18.6202 19.9339 4.57578 1.90155 5.06254
lowerback 12.5304 -4.48626 -5.38368
upperback -0.704237 -6.77402 -0.0342169
thorax -7.14287 -3.09786 4.19439
lowerneck -7.91543 2.87404 -0.33178
upperneck -3.75877 3.81785 -2.79804
head 0.195499 1.88514 -0.706033
rclavicle 4.43787e-014 -4.87022e-015
rhumerus -64.7982 7.25212 -81.9026
rradius 82.6946
rwrist -1.37164
rhand -44.9066 34.151
rfingers 7.12502
rthumb -17.6938 4.93606
lclavicle 4.43787e-014 -4.87022e-015
lhumerus -18.7504 -21.8512 87.854
lradius 121.932
lwrist 26.8201
lhand -37.9147 8.35369
lfingers 7.12502
lthumb -10.957 38.0478
rfemur -43.136 2.33562 15.1438
rtibia 54.2718
rfoot 4.80257 -2.86474
rtoes -5.09819
lfemur 33.1936 -4.08071 -28.4313
ltibia -3.18055e-014
lfoot 37.854 4.41629
ltoes -6.81939
106
root 0.745494 18.6598 20.5009 4.60874 1.67316 4.93135
lowerback 12.3812 -4.51547 -4.95905
upperback -0.596515 -6.72952 0.0617219
thorax -6.98285 -3.09973 4.03313
lowerneck -8.27535 2.95251 -0.205434
upperneck -3.98 3.90729 -2.95233
head 0.193444 1.92609 -0.768859
rclavicle 2.23881e-014 4.87022e-015
rhumerus -64.2529 7.18743 -81.8416
rradius 82.7582
rwrist -1.10245
rhand -44.8221 34.6984
rfingers 7.12502
rthumb -17.6124 5.4761
lclavicle 2.23881e-014 4.87022e-015
lhumerus -19.7036 -22.8624 88.1621
lradius 121.992
lwrist 25.9029
lhand -38.0397 6.55759
lfingers 7.12502
lthumb -11.0775 36.2452
rfemur -41.9541 3.19204 14.9159
rtibia 48.9052
rfoot 5.31477 -2.91969
rtoes -6.93363
lfemur 34.2096 -4.47232 -28.7421
ltibia 2.54444e-014
lfoot 38.5411 3.54335
ltoes -7.73605
107
root 0.761323 18.6943 21.0601 4.67072 1.51504 4.99398
lowerback 12.0744 -4.53103 -4.62582
upperback -0.475024 -6.68082 0.0609343
thorax -6.72157 -3.10163 3.80304
lowerneck -8.09548 2.87193 -0.308149
upperneck -4.69318 3.78775 -2.87211
head -0.0623784 1.87716 -0.73871
rclavicle -2.51463e-014 -7.55382e-015
rhumerus -63.4492 6.92994 -81.7202
rradius 82.4747
rwrist -0.917244
rhand -44.62 36.3256
rfingers 7.12502
rthumb -17.418 7.08599
lclavicle -2.51463e-014 -7.55382e-015
lhumerus -20.9149 -23.9234 88.65
lradius 122.017
lwrist 24.9602
lhand -37.9445 5.54193
lfingers 7.12502
lthumb -10.9857 35.2345
rfemur -40.7005 4.08332 14.4016
rtibia 43.6145
rfoot 5.86577 -3.74421
rtoes -7.53302
lfemur 35.1706 -4.91721 -29.3086
ltibia -7.63333e-014
lfoot 38.5876 2.67931
ltoes -12.7269
